<svg xmlns="http://www.w3.org/2000/svg" viewBox="0 0 240 170"><line x1="176.0" y1="24.0" x2="176.0" y2="16.0" stroke="#FFC85C" stroke-width="4" stroke-linecap="round"/><line x1="187.3" y1="28.7" x2="193.0" y2="23.0" stroke="#FFC85C" stroke-width="4" stroke-linecap="round"/><line x1="192.0" y1="40.0" x2="200.0" y2="40.0" stroke="#FFC85C" stroke-width="4" stroke-linecap="round"/><line x1="187.3" y1="51.3" x2="193.0" y2="57.0" stroke="#FFC85C" stroke-width="4" stroke-linecap="round"/><line x1="176.0" y1="56.0" x2="176.0" y2="64.0" stroke="#FFC85C" stroke-width="4" stroke-linecap="round"/><line x1="164.7" y1="51.3" x2="159.0" y2="57.0" stroke="#FFC85C" stroke-width="4" stroke-linecap="round"/><line x1="160.0" y1="40.0" x2="152.0" y2="40.0" stroke="#FFC85C" stroke-width="4" stroke-linecap="round"/><line x1="164.7" y1="28.7" x2="159.0" y2="23.0" stroke="#FFC85C" stroke-width="4" stroke-linecap="round"/><circle cx="176" cy="40" r="13" fill="#FFC85C"/><g fill="#FFFFFF" stroke="#DFF4F8" stroke-width="2"><rect x="57.050000000000004" y="73.9" width="77.89999999999999" height="32.8" rx="16.4" /><circle cx="75.5" cy="69.8" r="22.549999999999997" /><circle cx="98.05" cy="59.55" r="30.749999999999996" /><circle cx="122.65" cy="73.9" r="20.5" /></g><circle cx="81.3" cy="80" r="3.7800000000000002" fill="#4A3B30"/><circle cx="110.7" cy="80" r="3.7800000000000002" fill="#4A3B30"/><circle cx="70.8" cy="90.5" r="7.5600000000000005" fill="#FFE0D1" opacity="0.85"/><circle cx="121.2" cy="90.5" r="7.5600000000000005" fill="#FFE0D1" opacity="0.85"/><path d="M85.5 88.4 Q96 96.8 106.5 88.4" stroke="#4A3B30" stroke-width="3.3600000000000003" fill="none" stroke-linecap="round"/><ellipse cx="60" cy="150" rx="50" ry="8" fill="#FFE0D1" opacity="0.6"/><ellipse cx="150" cy="158" rx="34" ry="6" fill="#DFF4F8" opacity="0.8"/><path fill="#FF8A65" d="M150 122.1 C136.8 113.3 135.7 104.5 142.3 100.1 C146.7 97.35 150 100.1 150 104.5 C150 100.1 153.3 97.35 157.7 100.1 C164.3 104.5 163.2 113.3 150 122.1 Z"/><circle cx="40" cy="60" r="3" fill="#FFC85C"/><circle cx="206" cy="96" r="2.4" fill="#FF8A65"/></svg>